<svg version="1" xmlns="http://www.w3.org/2000/svg" width="346.667" height="346.667" viewBox="0 0 260.000000 260.000000"><path d="M110.5 7.6C83.9 12 61.9 23.2 43.1 41.8c-17 16.9-27.8 35.8-33.5 58.7-2.4 9.7-2.7 12.3-3.1 26-.6 21.8 2.6 37.3 11.5 56.3 6.8 14.2 12.9 23 24 34.2 17.5 17.8 38.3 29.2 63.2 34.6 9.9 2.2 33.9 2.6 44.3.8C174.8 248 198.1 236 216 218c10-10 10.6-10.8 17.5-21.4 6.9-10.8 12.9-24.8 16.1-38.2 2.4-9.5 2.7-13 2.8-27.4.1-18.2-1.2-26.7-6.5-42-3.7-10.9-5.9-15.2-13.7-27.2-6.2-9.6-18.5-23.1-27.2-30-15.9-12.4-38.4-21.8-59-24.7-8.7-1.2-26.9-1-35.5.5z"/></svg>