<?xml version="1.0" encoding="UTF-8" standalone="no"?>
<!-- Created with Inkscape (http://www.inkscape.org/) -->

<svg
   xmlns:dc="http://purl.org/dc/elements/1.1/"
   xmlns:cc="http://creativecommons.org/ns#"
   xmlns:rdf="http://www.w3.org/1999/02/22-rdf-syntax-ns#"
   xmlns:svg="http://www.w3.org/2000/svg"
   xmlns="http://www.w3.org/2000/svg"
   xmlns:sodipodi="http://sodipodi.sourceforge.net/DTD/sodipodi-0.dtd"
   xmlns:inkscape="http://www.inkscape.org/namespaces/inkscape"
   width="232.59818"
   height="127"
   viewBox="0 0 61.541598 33.602082"
   version="1.1"
   id="svg8"
   inkscape:version="0.92.0 r15299"
   sodipodi:docname="ia financial group.svg">
  <defs
     id="defs2">
    <clipPath
       id="clipPath316"
       clipPathUnits="userSpaceOnUse">
      <path
         inkscape:connector-curvature="0"
         id="path314"
         d="M 362,32.548 H 583.832 V 58.736 H 362 Z" />
    </clipPath>
    <style
       id="style1599">.logo-ia-1{fill:#003da5;}.logo-ia-2{fill:#7c878e;}.logo-ia-3{fill:#2f4995;}</style>
  </defs>
  <sodipodi:namedview
     id="base"
     pagecolor="#ffffff"
     bordercolor="#666666"
     borderopacity="1.0"
     inkscape:pageopacity="0.0"
     inkscape:pageshadow="2"
     inkscape:zoom="3.4779114"
     inkscape:cx="115.29909"
     inkscape:cy="62.499999"
     inkscape:document-units="mm"
     inkscape:current-layer="layer1"
     showgrid="false"
     fit-margin-top="0"
     fit-margin-left="0"
     fit-margin-right="0"
     fit-margin-bottom="0"
     units="px"
     inkscape:window-width="1280"
     inkscape:window-height="744"
     inkscape:window-x="-4"
     inkscape:window-y="-4"
     inkscape:window-maximized="1" />
  <metadata
     id="metadata5">
    <rdf:RDF>
      <cc:Work
         rdf:about="">
        <dc:format>image/svg+xml</dc:format>
        <dc:type
           rdf:resource="http://purl.org/dc/dcmitype/StillImage" />
        <dc:title></dc:title>
      </cc:Work>
    </rdf:RDF>
  </metadata>
  <g
     inkscape:label="Layer 1"
     inkscape:groupmode="layer"
     id="layer1"
     transform="translate(242.17288,-307.14867)">
    <g
       id="g1675"
       transform="matrix(0.26458333,0,0,0.26458333,-241.9083,307.41325)">
      <polygon
         id="polygon1603"
         points="0.06,87.83 9.23,26.75 26.88,26.75 17.69,87.83 "
         class="logo-ia-1"
         style="fill:#003da5" />
      <circle
         id="circle1605"
         r="10.77"
         cy="10.77"
         cx="20.459999"
         class="logo-ia-1"
         style="fill:#003da5" />
      <path
         id="path1607"
         d="m 91.1,87.83 h 18.1 L 86.46,5.43 h -16 L 23.1,87.83 H 41.32 L 53.82,66.07 H 85.08 Z M 62.83,50.39 74.94,29.34 80.75,50.4 Z"
         class="logo-ia-1"
         inkscape:connector-curvature="0"
         style="fill:#003da5" />
      <path
         id="path1609"
         d="M 214.44,0 A 16.16,16.16 0 0 1 230.3,19.25 L 223,68.38 a 2.82,2.82 0 0 0 0,0.49 2.73,2.73 0 0 0 2.73,2.73 h 2.66 v 10.8 h -7.58 A 10.75,10.75 0 0 1 210,71.65 V 43 h -13.8 a 16.89,16.89 0 0 1 -1.85,-0.1 16.53,16.53 0 0 1 -14.55,-14.29 16.93,16.93 0 0 1 0.15,-5.15 L 183.47,0 Z"
         class="logo-ia-2"
         inkscape:connector-curvature="0"
         style="fill:#7c878e" />
      <path
         id="path1611"
         d="M 177.12,5.43 H 154.18 C 137.93,5.43 124.55,18 122.64,34 l -8.07,53.81 h 13.87 l 6,-21.76 h 45 v 21.78 h 13.27 l 6,-39.42 h -2.52 a 22.57,22.57 0 0 1 -2.47,-0.13 22,22 0 0 1 -19.36,-19 22.41,22.41 0 0 1 0.07,-6.11 l 2.66,-17.75"
         class="logo-ia-2"
         inkscape:connector-curvature="0"
         style="fill:#7c878e" />
      <polygon
         id="polygon1613"
         points="138.54,71.47 134,87.83 147.82,87.83 154.65,71.47 "
         class="logo-ia-2"
         style="fill:#7c878e" />
      <path
         id="path1615"
         d="m 0,99.42 h 15.85 v 4.16 H 4.58 V 108 h 9.93 v 4.16 H 4.58 v 8.06 H 0 Z"
         class="logo-ia-1"
         inkscape:connector-curvature="0"
         style="fill:#003da5" />
      <path
         id="path1617"
         d="m 18.26,104.3 h 4.52 v 15.94 h -4.52 z"
         class="logo-ia-1"
         inkscape:connector-curvature="0"
         style="fill:#003da5" />
      <path
         id="path1619"
         d="m 26.41,104.3 h 4.52 v 2.26 A 5.64,5.64 0 0 1 35.59,104 c 3.41,0 5.41,2.26 5.41,5.92 v 10.32 h -4.51 v -8.89 c 0,-2.14 -1,-3.24 -2.74,-3.24 -1.74,0 -2.83,1.1 -2.83,3.24 v 8.89 h -4.51 z"
         class="logo-ia-1"
         inkscape:connector-curvature="0"
         style="fill:#003da5" />
      <path
         id="path1621"
         d="m 43.24,112.3 v -0.06 c 0,-5.32 3.48,-8.24 7.26,-8.24 a 6.12,6.12 0 0 1 5,2.38 V 104.3 H 60 v 15.94 h -4.54 v -2.29 a 5.85,5.85 0 0 1 -5,2.59 c -3.68,0 -7.22,-2.92 -7.22,-8.24 z m 12.28,0 v -0.06 c 0,-2.65 -1.75,-4.4 -3.87,-4.4 -2.12,0 -3.9,1.72 -3.9,4.4 v 0.06 c 0,2.65 1.78,4.4 3.9,4.4 2.12,0 3.87,-1.76 3.87,-4.4 z"
         class="logo-ia-1"
         inkscape:connector-curvature="0"
         style="fill:#003da5" />
      <path
         id="path1623"
         d="m 63.31,104.3 h 4.52 v 2.26 A 5.64,5.64 0 0 1 72.5,104 c 3.42,0 5.41,2.26 5.41,5.92 v 10.32 h -4.52 v -8.89 c 0,-2.14 -1,-3.24 -2.74,-3.24 -1.74,0 -2.82,1.1 -2.82,3.24 v 8.89 h -4.52 z"
         class="logo-ia-1"
         inkscape:connector-curvature="0"
         style="fill:#003da5" />
      <path
         id="path1625"
         d="m 80.44,112.36 v -0.06 a 8.18,8.18 0 0 1 8.36,-8.3 7.84,7.84 0 0 1 6.36,2.68 l -2.77,3 a 4.66,4.66 0 0 0 -3.63,-1.75 4.07,4.07 0 0 0 -3.87,4.34 v 0.06 a 4.08,4.08 0 0 0 4,4.4 5,5 0 0 0 3.71,-1.73 l 2.65,2.68 a 8,8 0 0 1 -6.51,2.91 8.14,8.14 0 0 1 -8.3,-8.23 z"
         class="logo-ia-1"
         inkscape:connector-curvature="0"
         style="fill:#003da5" />
      <path
         id="path1627"
         d="m 97.77,104.3 h 4.52 v 15.94 h -4.52 z"
         class="logo-ia-1"
         inkscape:connector-curvature="0"
         style="fill:#003da5" />
      <path
         id="path1629"
         d="m 104.85,112.3 v -0.06 c 0,-5.32 3.48,-8.24 7.26,-8.24 a 6.12,6.12 0 0 1 5,2.38 v -2.08 h 4.52 v 15.94 h -4.52 v -2.29 a 5.85,5.85 0 0 1 -5,2.59 c -3.72,0 -7.26,-2.92 -7.26,-8.24 z m 12.28,0 v -0.06 c 0,-2.65 -1.75,-4.4 -3.87,-4.4 -2.12,0 -3.9,1.72 -3.9,4.4 v 0.06 c 0,2.65 1.78,4.4 3.9,4.4 2.12,0 3.87,-1.76 3.87,-4.4 z"
         class="logo-ia-1"
         inkscape:connector-curvature="0"
         style="fill:#003da5" />
      <path
         id="path1631"
         d="m 125.13,98.53 h 4.52 v 21.71 h -4.52 z"
         class="logo-ia-1"
         inkscape:connector-curvature="0"
         style="fill:#003da5" />
      <path
         id="path1633"
         d="m 141.13,109.89 v -0.06 A 10.68,10.68 0 0 1 152,99.07 a 11.43,11.43 0 0 1 8.18,2.85 l -2.88,3.48 a 7.67,7.67 0 0 0 -5.44,-2.11 6.25,6.25 0 0 0 -6,6.48 v 0.06 a 6.24,6.24 0 0 0 6.3,6.6 7.31,7.31 0 0 0 4.31,-1.25 v -3 h -4.61 v -4 h 9 v 9 a 13.51,13.51 0 0 1 -8.89,3.3 c -6.38,0.11 -10.84,-4.48 -10.84,-10.59 z"
         class="logo-ia-1"
         inkscape:connector-curvature="0"
         style="fill:#003da5" />
      <path
         id="path1635"
         d="m 164.26,104.3 h 4.52 v 3.21 c 0.92,-2.2 2.41,-3.63 5.08,-3.51 v 4.73 h -0.24 c -3,0 -4.85,1.81 -4.85,5.62 v 5.89 h -4.52 z"
         class="logo-ia-1"
         inkscape:connector-curvature="0"
         style="fill:#003da5" />
      <path
         id="path1637"
         d="m 174.85,112.36 v -0.06 a 8.63,8.63 0 0 1 17.25,-0.06 v 0.06 a 8.63,8.63 0 0 1 -17.25,0.06 z m 12.79,0 v -0.06 a 4.23,4.23 0 0 0 -4.19,-4.4 4.08,4.08 0 0 0 -4.13,4.34 v 0.06 a 4.23,4.23 0 0 0 4.19,4.4 4.08,4.08 0 0 0 4.13,-4.34 z"
         class="logo-ia-1"
         inkscape:connector-curvature="0"
         style="fill:#003da5" />
      <path
         id="path1639"
         d="M 194.63,114.62 V 104.3 h 4.52 v 8.89 c 0,2.14 1,3.24 2.74,3.24 1.74,0 2.83,-1.1 2.83,-3.24 v -8.89 h 4.52 v 15.94 h -4.52 V 118 a 5.64,5.64 0 0 1 -4.67,2.56 c -3.43,-0.02 -5.42,-2.28 -5.42,-5.94 z"
         class="logo-ia-1"
         inkscape:connector-curvature="0"
         style="fill:#003da5" />
      <path
         id="path1641"
         d="m 212.65,104.3 h 4.52 v 2.29 a 5.85,5.85 0 0 1 5,-2.59 c 3.72,0 7.26,2.91 7.26,8.24 v 0.06 c 0,5.32 -3.48,8.24 -7.26,8.24 a 6.12,6.12 0 0 1 -5,-2.38 V 125 h -4.52 z m 12.22,8 v -0.06 c 0,-2.65 -1.78,-4.4 -3.9,-4.4 -2.12,0 -3.87,1.75 -3.87,4.4 v 0.06 c 0,2.65 1.75,4.4 3.87,4.4 2.12,0 3.9,-1.7 3.9,-4.4 z"
         class="logo-ia-1"
         inkscape:connector-curvature="0"
         style="fill:#003da5" />
      <path
         id="path1643"
         d="m 100,98.06 a 2.57,2.57 0 1 1 -2.59,2.59 2.57,2.57 0 0 1 2.59,-2.59 z"
         class="logo-ia-3"
         inkscape:connector-curvature="0"
         style="fill:#2f4995" />
      <path
         id="path1645"
         d="m 20.52,98.06 a 2.57,2.57 0 1 1 -2.59,2.59 2.57,2.57 0 0 1 2.59,-2.59 z"
         class="logo-ia-3"
         inkscape:connector-curvature="0"
         style="fill:#2f4995" />
    </g>
  </g>
</svg>
